<svg xmlns="http://www.w3.org/2000/svg" xmlns:xlink="http://www.w3.org/1999/xlink" width="378" zoomAndPan="magnify" viewBox="0 0 283.5 283.500005" height="378" preserveAspectRatio="xMidYMid meet" version="1.0"><defs><g/><clipPath id="c5d2156636"><path d="M 0 0 L 283 0 L 283 283 L 0 283 Z M 0 0 " clip-rule="nonzero"/></clipPath><clipPath id="cbae19cda4"><path d="M 0 0 L 283 0 L 283 283 L 0 283 Z M 0 0 " clip-rule="nonzero"/></clipPath><clipPath id="8cfb6670b3"><path d="M 141.5 0 C 63.351562 0 0 63.351562 0 141.5 C 0 219.648438 63.351562 283 141.5 283 C 219.648438 283 283 219.648438 283 141.5 C 283 63.351562 219.648438 0 141.5 0 Z M 141.5 0 " clip-rule="nonzero"/></clipPath><clipPath id="f6f2f7eaa7"><path d="M 0 0 L 283 0 L 283 283 L 0 283 Z M 0 0 " clip-rule="nonzero"/></clipPath><clipPath id="59797da898"><path d="M 141.5 0 C 63.351562 0 0 63.351562 0 141.5 C 0 219.648438 63.351562 283 141.5 283 C 219.648438 283 283 219.648438 283 141.5 C 283 63.351562 219.648438 0 141.5 0 Z M 141.5 0 " clip-rule="nonzero"/></clipPath><clipPath id="458b7d5beb"><rect x="0" width="283" y="0" height="283"/></clipPath><clipPath id="36598e4f85"><rect x="0" width="132" y="0" height="70"/></clipPath><clipPath id="8c715a3f23"><rect x="0" width="283" y="0" height="283"/></clipPath></defs><path fill="#ffffff" d="M 0 0 L 283 0 L 283 283 L 0 283 Z M 0 0 " fill-opacity="1" fill-rule="nonzero"/><g transform="matrix(1, 0, 0, 1, 0, 0.000000000000005262)"><g clip-path="url(#8c715a3f23)"><g clip-path="url(#c5d2156636)"><rect x="-62.37" width="408.24" fill="#ffffff" height="408.240007" y="-62.370001" fill-opacity="1"/></g><g clip-path="url(#cbae19cda4)"><g clip-path="url(#8cfb6670b3)"><g transform="matrix(1, 0, 0, 1, 0, 0.000000000000005262)"><g clip-path="url(#458b7d5beb)"><g clip-path="url(#f6f2f7eaa7)"><g clip-path="url(#59797da898)"><rect x="-103.194" width="489.888" fill="#21661e" y="-103.194002" height="489.888009" fill-opacity="1"/></g></g></g></g></g></g><g transform="matrix(1, 0, 0, 1, 75, 104)"><g clip-path="url(#36598e4f85)"><g fill="#ffffff" fill-opacity="1"><g transform="translate(3.720934, 48.003766)"><g><path d="M 26.28125 -44.234375 C 28.375 -44.234375 30.1875 -44.035156 31.71875 -43.640625 C 33.257812 -43.242188 34.742188 -42.726562 36.171875 -42.09375 C 37.347656 -41.632812 38.101562 -41.40625 38.4375 -41.40625 C 38.945312 -41.40625 39.429688 -41.664062 39.890625 -42.1875 C 40.347656 -42.71875 40.660156 -43.398438 40.828125 -44.234375 L 41.90625 -44.234375 L 42.984375 -29.625 L 41.90625 -29.625 C 41.53125 -32.1875 40.59375 -34.390625 39.09375 -36.234375 C 37.601562 -38.078125 35.773438 -39.472656 33.609375 -40.421875 C 31.453125 -41.367188 29.175781 -41.84375 26.78125 -41.84375 C 21.863281 -41.84375 17.925781 -40.085938 14.96875 -36.578125 C 12.007812 -33.066406 10.53125 -27.765625 10.53125 -20.671875 C 10.53125 -16.472656 11.335938 -12.953125 12.953125 -10.109375 C 14.566406 -7.273438 16.6875 -5.175781 19.3125 -3.8125 C 21.9375 -2.445312 24.742188 -1.765625 27.734375 -1.765625 C 30.796875 -1.765625 33.710938 -2.539062 36.484375 -4.09375 C 39.253906 -5.644531 41.421875 -7.722656 42.984375 -10.328125 L 43.921875 -9.703125 C 39.765625 -2.609375 33.628906 0.9375 25.515625 0.9375 C 21.316406 0.9375 17.472656 -0.0351562 13.984375 -1.984375 C 10.503906 -3.941406 7.742188 -6.597656 5.703125 -9.953125 C 3.660156 -13.316406 2.640625 -17.015625 2.640625 -21.046875 C 2.640625 -25.285156 3.691406 -29.179688 5.796875 -32.734375 C 7.898438 -36.285156 10.753906 -39.085938 14.359375 -41.140625 C 17.972656 -43.203125 21.945312 -44.234375 26.28125 -44.234375 Z M 26.28125 -44.234375 "/></g></g></g><g fill="#ffffff" fill-opacity="1"><g transform="translate(49.032689, 48.003766)"><g><path d="M 15.0625 -29.9375 C 21.363281 -29.9375 24.515625 -27.414062 24.515625 -22.375 L 24.515625 -5.671875 C 24.515625 -4.535156 24.679688 -3.789062 25.015625 -3.4375 C 25.347656 -3.082031 25.789062 -2.90625 26.34375 -2.90625 C 26.96875 -2.90625 27.550781 -3.082031 28.09375 -3.4375 C 28.644531 -3.789062 29.445312 -4.472656 30.5 -5.484375 L 30.5 -3.90625 C 28.90625 -2.101562 27.59375 -0.851562 26.5625 -0.15625 C 25.53125 0.53125 24.46875 0.875 23.375 0.875 C 22.15625 0.875 21.175781 0.445312 20.4375 -0.40625 C 19.707031 -1.269531 19.34375 -2.539062 19.34375 -4.21875 C 17.5 -2.457031 15.785156 -1.164062 14.203125 -0.34375 C 12.628906 0.46875 10.921875 0.875 9.078125 0.875 C 7.222656 0.875 5.664062 0.179688 4.40625 -1.203125 C 3.144531 -2.585938 2.515625 -4.265625 2.515625 -6.234375 C 2.515625 -9.597656 4.300781 -12.203125 7.875 -14.046875 C 11.28125 -15.859375 15.101562 -17.519531 19.34375 -19.03125 L 19.34375 -20.796875 C 19.34375 -22.472656 19.226562 -23.816406 19 -24.828125 C 18.769531 -25.835938 18.242188 -26.644531 17.421875 -27.25 C 16.597656 -27.863281 15.347656 -28.171875 13.671875 -28.171875 C 12.035156 -28.171875 10.816406 -27.769531 10.015625 -26.96875 C 9.222656 -26.164062 8.828125 -25.179688 8.828125 -24.015625 L 8.890625 -22.375 C 8.890625 -21.65625 8.65625 -21.0625 8.1875 -20.59375 C 7.726562 -20.132812 7.140625 -19.90625 6.421875 -19.90625 C 5.628906 -19.90625 4.976562 -20.132812 4.46875 -20.59375 C 3.96875 -21.0625 3.71875 -21.71875 3.71875 -22.5625 C 3.71875 -24.65625 4.703125 -26.40625 6.671875 -27.8125 C 8.648438 -29.226562 11.445312 -29.9375 15.0625 -29.9375 Z M 7.875 -7.875 C 7.875 -6.445312 8.328125 -5.226562 9.234375 -4.21875 C 10.140625 -3.207031 11.265625 -2.703125 12.609375 -2.703125 C 14.742188 -2.703125 16.988281 -3.753906 19.34375 -5.859375 L 19.34375 -17.328125 C 16.40625 -16.109375 14.132812 -15.046875 12.53125 -14.140625 C 10.9375 -13.242188 9.757812 -12.3125 9 -11.34375 C 8.25 -10.375 7.875 -9.21875 7.875 -7.875 Z M 7.875 -7.875 "/></g></g></g><g fill="#ffffff" fill-opacity="1"><g transform="translate(80.542946, 48.003766)"><g><path d="M 17.828125 -45.1875 C 19.210938 -45.1875 20.523438 -44.941406 21.765625 -44.453125 C 23.003906 -43.972656 23.992188 -43.320312 24.734375 -42.5 C 25.472656 -41.6875 25.84375 -40.835938 25.84375 -39.953125 C 25.84375 -39.316406 25.585938 -38.738281 25.078125 -38.21875 C 24.578125 -37.695312 23.988281 -37.4375 23.3125 -37.4375 C 22.601562 -37.4375 22.023438 -37.644531 21.578125 -38.0625 C 21.140625 -38.476562 20.625 -39.109375 20.03125 -39.953125 C 19.363281 -40.960938 18.722656 -41.71875 18.109375 -42.21875 C 17.503906 -42.726562 16.675781 -42.984375 15.625 -42.984375 C 14.40625 -42.984375 13.40625 -42.519531 12.625 -41.59375 C 11.851562 -40.664062 11.46875 -38.941406 11.46875 -36.421875 L 11.46875 -29.234375 L 17.390625 -29.234375 L 17.390625 -27.28125 L 11.46875 -27.28125 L 11.46875 -6.671875 C 11.46875 -5.035156 11.632812 -3.828125 11.96875 -3.046875 C 12.3125 -2.273438 12.835938 -1.765625 13.546875 -1.515625 C 14.265625 -1.265625 15.296875 -1.140625 16.640625 -1.140625 L 16.640625 0 L 1.515625 0 L 1.515625 -1.140625 C 2.734375 -1.140625 3.664062 -1.273438 4.3125 -1.546875 C 4.96875 -1.816406 5.460938 -2.335938 5.796875 -3.109375 C 6.128906 -3.890625 6.296875 -5.078125 6.296875 -6.671875 L 6.296875 -27.28125 L 2.203125 -27.28125 L 2.203125 -29.234375 L 6.296875 -29.234375 L 6.296875 -32.265625 C 6.296875 -34.867188 6.851562 -37.144531 7.96875 -39.09375 C 9.082031 -41.050781 10.519531 -42.554688 12.28125 -43.609375 C 14.050781 -44.660156 15.898438 -45.1875 17.828125 -45.1875 Z M 17.828125 -45.1875 "/></g></g></g><g fill="#ffffff" fill-opacity="1"><g transform="translate(101.528788, 48.003766)"><g><path d="M 14.8125 -29.9375 C 18.082031 -29.9375 20.738281 -28.84375 22.78125 -26.65625 C 24.820312 -24.46875 25.84375 -21.632812 25.84375 -18.15625 L 6.046875 -18.15625 L 6.046875 -17.328125 C 6.046875 -15.097656 6.488281 -12.960938 7.375 -10.921875 C 8.257812 -8.890625 9.5 -7.242188 11.09375 -5.984375 C 12.6875 -4.722656 14.492188 -4.09375 16.515625 -4.09375 C 20.503906 -4.09375 23.296875 -6.320312 24.890625 -10.78125 L 25.84375 -10.265625 C 25.164062 -6.828125 23.773438 -4.109375 21.671875 -2.109375 C 19.578125 -0.117188 17.054688 0.875 14.109375 0.875 C 11.929688 0.875 9.90625 0.3125 8.03125 -0.8125 C 6.164062 -1.945312 4.65625 -3.648438 3.5 -5.921875 C 2.34375 -8.191406 1.765625 -10.941406 1.765625 -14.171875 C 1.765625 -17.285156 2.3125 -20.039062 3.40625 -22.4375 C 4.5 -24.832031 6.03125 -26.679688 8 -27.984375 C 9.976562 -29.285156 12.25 -29.9375 14.8125 -29.9375 Z M 13.046875 -27.734375 C 11.273438 -27.734375 9.75 -27.035156 8.46875 -25.640625 C 7.1875 -24.253906 6.421875 -22.410156 6.171875 -20.109375 L 19.34375 -20.109375 C 19.257812 -22.367188 18.679688 -24.203125 17.609375 -25.609375 C 16.535156 -27.023438 15.015625 -27.734375 13.046875 -27.734375 Z M 13.046875 -27.734375 "/></g></g></g></g></g></g></g></svg>